# xmcd
#
# Track frame offsets: 
#        150
#        13023
#        26031
#        47261
#        64092
#        82186
#        101688
#        118225
#        133727
#        146518
#        160708
#        180195
#        201171
#        214232
#        230917
#        247429
#
# Disc length: 3482 seconds
#
# Revision: 0
# Processed by: cddbd v1.5.1PL0 Copyright (c) Steve Scherf et al.
# Submitted via: ExactAudioCopy v0.95a3
#
DISCID=eb0d9810
DTITLE=Various Artist - Bluegrass Today, disc 2
DYEAR=2003
DGENRE=Bluegrass
TTITLE0=Tony Rice/Thunderclouds Of Love
TTITLE1=J.D. Crowe and the New South/Come On Down To My World
TTITLE2=Steve Earle and the Del McCoury Band/The Mountain
TTITLE3=Ralph Stanley, Judy Marshall, Alison Krauss/On Heaven's Bright
TTITLE3=Side
TTITLE4=The Cox Family/Blue Bayou
TTITLE5=Larry Cordle and Lonesome Standard Time/Murder On Music Row
TTITLE6=Blue Highway/Still Climbing Mountains
TTITLE7=Mark O'Connor/Jerusalem's Ridge
TTITLE8=Claire Lynch/Pee Wee And Fern
TTITLE9=Jerry Douglas/Hey Joe
TTITLE10=Ricky Skaggs/Walls Of Time
TTITLE11=Bela Fleck/Buffalo Nickel
TTITLE12=IIIrd Tyme Out/John and Mary
TTITLE13=Mark Newton and Friends/Follow Me Back To The Fold
TTITLE14=Front Range/One Beautiful Day
TTITLE15=Emmylou Harris and the Nash Ramblers/Calling My Children Home
EXTD=
EXTT0=
EXTT1=
EXTT2=
EXTT3=
EXTT4=
EXTT5=
EXTT6=
EXTT7=
EXTT8=
EXTT9=
EXTT10=
EXTT11=
EXTT12=
EXTT13=
EXTT14=
EXTT15=
PLAYORDER=
